<svg width="64" height="64" viewBox="0 0 64 64" fill="none" xmlns="http://www.w3.org/2000/svg" role="img" aria-labelledby="securityTitle">
  <title id="securityTitle">Security icon</title>
  <rect x="8" y="12" width="48" height="40" rx="14" fill="#1f2937" />
  <path d="M32 18c6.08 0 11 4.92 11 11v3h3a4 4 0 0 1 4 4v8c0 2.21-1.79 4-4 4H22a4 4 0 0 1-4-4v-8a4 4 0 0 1 4-4h3v-3c0-6.08 4.92-11 11-11Z" fill="#2563eb" />
  <path d="M32 22c3.87 0 7 3.13 7 7v3h-14v-3c0-3.87 3.13-7 7-7Z" fill="#0ea5e9" />
  <rect x="30" y="32" width="4" height="8" rx="2" fill="#f8fafc" />
</svg>
