<svg width="196" height="48" viewBox="0 0 196 48" fill="none" xmlns="http://www.w3.org/2000/svg" role="img" aria-labelledby="title desc">
  <title id="title">MoneyTree logo</title>
  <desc id="desc">Rounded emblem with a stylised tree and wordmark</desc>
  <rect x="2" y="2" width="44" height="44" rx="22" fill="url(#paint0_linear)" />
  <g filter="url(#shadow)">
    <path d="M24 11c-4.97 0-9 3.58-9 8 0 2.32 1.05 4.4 2.78 5.9a2 2 0 0 0 1.32.48h4.1v4.96a1.66 1.66 0 0 0 3.32 0V25.4h4.1a2 2 0 0 0 1.32-.48C31.95 23.4 33 21.32 33 19c0-4.42-4.03-8-9-8Z" fill="#f8fafc" />
    <path d="M20.5 19a3.5 3.5 0 1 1 7 0v1.5h-7V19Z" fill="#0f172a" fill-opacity=".2" />
    <path d="M22.75 26h2.5v4.5c0 .69-.56 1.25-1.25 1.25s-1.25-.56-1.25-1.25V26Z" fill="#0f172a" fill-opacity=".5" />
  </g>
  <g fill="#0f172a" fill-opacity="0.9">
    <path d="M62.43 33.2V14.8h4.74l4.97 10.7 4.94-10.7h4.74v18.4h-3.95V22.83l-3.86 8.46h-2.78l-3.83-8.4v10.3h-4.97Z" />
    <path d="M101.73 26.88h-9.87c.35 2.06 2.1 3.5 4.64 3.5 1.78 0 3.28-.58 4.56-1.8l2.35 2.63c-1.63 1.86-4.02 3.03-7.03 3.03-5.29 0-8.8-3.47-8.8-8.4 0-4.93 3.6-8.46 8.58-8.46 4.72 0 8.4 3.25 8.4 8.54 0 .5-.03 1.1-.14 1.96Zm-9.97-3.2h6.25c-.24-2.03-1.7-3.44-3.44-3.44-1.88 0-3.27 1.32-3.67 3.44Z" />
    <path d="M108.84 33.2V10.8h4.82v8.8c1.08-1.63 2.78-2.72 5.14-2.72 3.94 0 6.7 3.06 6.7 7.85 0 4.85-2.8 7.93-6.76 7.93-2.32 0-4.12-1.08-5.14-2.82v2.36h-4.76Zm11.04-8.54c0-2.32-1.3-3.92-3.24-3.92-1.88 0-3.24 1.63-3.24 3.92 0 2.29 1.36 3.92 3.24 3.92 1.94 0 3.24-1.6 3.24-3.92Z" />
    <path d="M140.45 33.5c-5.01 0-8.66-3.53-8.66-8.46 0-4.97 3.7-8.4 8.8-8.4 3.4 0 6.14 1.54 7.53 4.12l-4 2.04c-.68-1.3-1.9-2.07-3.4-2.07-2.26 0-3.83 1.78-3.83 4.3 0 2.49 1.54 4.3 3.83 4.3 1.56 0 2.74-.72 3.47-2.04l4 2c-1.45 2.62-4.2 4.2-7.74 4.2Z" />
    <path d="M152.65 27.5v-6.88h4.8v5.86c0 1.82.88 2.78 2.43 2.78 1.63 0 2.76-1.02 2.76-3.02V20.6h4.8v12.6h-4.8v-1.96c-1.14 1.5-2.78 2.3-4.86 2.3-3.4 0-5.13-2.06-5.13-5.04Z" />
    <path d="M184.47 30.3v2.9h-4.83V10.8h4.83v7.82c1.02-1.4 2.52-2.26 4.44-2.26 3.92 0 6.62 3.1 6.62 7.9 0 4.87-2.73 7.9-6.62 7.9-1.98 0-3.5-.84-4.44-2.26Zm6.23-5.62c0-2.32-1.3-3.92-3.22-3.92-1.94 0-3.22 1.6-3.22 3.92 0 2.32 1.28 3.92 3.22 3.92 1.92 0 3.22-1.6 3.22-3.92Z" />
  </g>
  <defs>
    <linearGradient id="paint0_linear" x1="2" y1="24" x2="46" y2="24" gradientUnits="userSpaceOnUse">
      <stop stop-color="#2563eb" />
      <stop offset="1" stop-color="#0ea5e9" />
    </linearGradient>
    <filter id="shadow" x="10" y="7" width="28" height="30" filterUnits="userSpaceOnUse" color-interpolation-filters="sRGB">
      <feFlood flood-opacity="0" result="BackgroundImageFix" />
      <feColorMatrix in="SourceAlpha" type="matrix" values="0 0 0 0 0 0 0 0 0 0 0 0 0 0 0 0 0 0 127 0" result="hardAlpha" />
      <feOffset dy="1" />
      <feGaussianBlur stdDeviation="1.5" />
      <feColorMatrix type="matrix" values="0 0 0 0 0.027 0 0 0 0 0.063 0 0 0 0 0.145 0 0 0 0.18 0" />
      <feBlend mode="normal" in2="BackgroundImageFix" result="effect1_dropShadow" />
      <feBlend mode="normal" in="SourceGraphic" in2="effect1_dropShadow" result="shape" />
    </filter>
  </defs>
</svg>
