<svg width="960" height="720" viewBox="0 0 960 720" fill="none" xmlns="http://www.w3.org/2000/svg" role="img" aria-labelledby="heroTitle heroDesc">
  <title id="heroTitle">MoneyTree growth illustration</title>
  <desc id="heroDesc">Dashboard panels, a flourishing tree, and coins showing balanced finances</desc>
  <rect width="960" height="720" rx="40" fill="#0f172a" />
  <rect x="48" y="64" width="864" height="592" rx="32" fill="#1f2937" />
  <rect x="96" y="112" width="768" height="496" rx="28" fill="#111827" />
  <rect x="136" y="152" width="688" height="416" rx="24" fill="#15213a" />
  <rect x="176" y="192" width="608" height="112" rx="20" fill="#1f2f4d" />
  <rect x="176" y="328" width="288" height="200" rx="20" fill="#1f2f4d" />
  <rect x="496" y="328" width="288" height="200" rx="20" fill="#1f2f4d" />
  <rect x="216" y="216" width="180" height="16" rx="8" fill="#2563eb" />
  <rect x="216" y="248" width="96" height="12" rx="6" fill="#0ea5e9" />
  <rect x="336" y="248" width="140" height="12" rx="6" fill="#334155" />
  <rect x="216" y="280" width="224" height="12" rx="6" fill="#334155" />
  <g filter="url(#glow)">
    <ellipse cx="480" cy="448" rx="150" ry="70" fill="#0ea5e9" fill-opacity="0.25" />
  </g>
  <g>
    <path d="M475 284c-34 0-62 28-62 62 0 17 5 30 15 44l1 1c6 8 10 17 12 27l13 72h42l13-72c2-10 6-19 12-27l1-1c10-14 15-27 15-44 0-34-28-62-62-62Z" fill="#2563eb" />
    <path d="M475 308c-20 0-36 16-36 36 0 9 2 17 8 25 5 7 8 15 10 23l8 44h20l8-44c2-8 5-16 10-23 6-8 8-16 8-25 0-20-16-36-36-36Z" fill="#0ea5e9" />
    <path d="M475 340c-6 0-12 4-12 12 0 3 1 6 3 9 2 3 3 6 4 9l5 27h10l5-27c1-3 2-6 4-9 2-3 3-6 3-9 0-8-6-12-12-12Z" fill="#f8fafc" fill-opacity="0.9" />
  </g>
  <g>
    <path d="M358 396c-24 0-44 20-44 44s20 44 44 44 44-20 44-44-20-44-44-44Zm0 68c-13 0-24-11-24-24s11-24 24-24 24 11 24 24-11 24-24 24Z" fill="#0ea5e9" />
    <path d="M596 396c-24 0-44 20-44 44s20 44 44 44 44-20 44-44-20-44-44-44Zm0 68c-13 0-24-11-24-24s11-24 24-24 24 11 24 24-11 24-24 24Z" fill="#0ea5e9" />
  </g>
  <g>
    <rect x="212" y="356" width="216" height="16" rx="8" fill="#2563eb" />
    <rect x="212" y="392" width="152" height="12" rx="6" fill="#0ea5e9" />
    <rect x="212" y="420" width="168" height="12" rx="6" fill="#334155" />
    <rect x="212" y="448" width="112" height="12" rx="6" fill="#334155" />
  </g>
  <g>
    <rect x="532" y="356" width="188" height="16" rx="8" fill="#2563eb" />
    <rect x="532" y="392" width="120" height="12" rx="6" fill="#0ea5e9" />
    <rect x="532" y="420" width="156" height="12" rx="6" fill="#334155" />
    <rect x="532" y="448" width="176" height="12" rx="6" fill="#334155" />
  </g>
  <g>
    <rect x="316" y="476" width="100" height="12" rx="6" fill="#0ea5e9" />
    <rect x="556" y="476" width="120" height="12" rx="6" fill="#0ea5e9" />
  </g>
  <g>
    <circle cx="272" cy="508" r="28" fill="#2563eb" />
    <path d="M272 490c-5.52 0-10 3.58-10 8 0 3.26 2.28 6.08 5.49 7.37a9.2 9.2 0 0 0-1.49 4.63h6c0-1.34.72-2.62 1.94-3.53A8.88 8.88 0 0 0 282 498c0-4.42-4.48-8-10-8Z" fill="#f8fafc" />
  </g>
  <g>
    <circle cx="688" cy="508" r="28" fill="#2563eb" />
    <path d="M688 490c-5.52 0-10 3.58-10 8 0 3.26 2.28 6.08 5.49 7.37a9.2 9.2 0 0 0-1.49 4.63h6c0-1.34.72-2.62 1.94-3.53A8.88 8.88 0 0 0 698 498c0-4.42-4.48-8-10-8Z" fill="#f8fafc" />
  </g>
  <defs>
    <filter id="glow" x="300" y="318" width="360" height="260" filterUnits="userSpaceOnUse" color-interpolation-filters="sRGB">
      <feGaussianBlur stdDeviation="30" result="blur" />
      <feBlend in="SourceGraphic" in2="blur" mode="screen" />
    </filter>
  </defs>
</svg>
