<svg width="320" height="320" viewBox="0 0 320 320" fill="none" xmlns="http://www.w3.org/2000/svg">
  <rect width="320" height="320" fill="url(#paint0_radial)"/>
  <g opacity="0.85">
    <circle cx="72" cy="72" r="48" fill="#FACC15"/>
    <circle cx="72" cy="72" r="32" fill="url(#paint1_linear)"/>
  </g>
  <g opacity="0.75">
    <circle cx="176" cy="52" r="36" fill="#FDE68A"/>
    <circle cx="176" cy="52" r="24" fill="url(#paint2_linear)"/>
  </g>
  <g opacity="0.6">
    <circle cx="252" cy="116" r="28" fill="#F59E0B"/>
    <circle cx="252" cy="116" r="18" fill="url(#paint3_linear)"/>
  </g>
  <g opacity="0.8">
    <circle cx="84" cy="208" r="36" fill="#FACC15"/>
    <circle cx="84" cy="208" r="24" fill="url(#paint4_linear)"/>
  </g>
  <g opacity="0.55">
    <circle cx="196" cy="228" r="44" fill="#FCD34D"/>
    <circle cx="196" cy="228" r="28" fill="url(#paint5_linear)"/>
  </g>
  <g opacity="0.65">
    <circle cx="256" cy="204" r="32" fill="#F59E0B"/>
    <circle cx="256" cy="204" r="20" fill="url(#paint6_linear)"/>
  </g>
  <defs>
    <radialGradient id="paint0_radial" cx="0" cy="0" r="1" gradientUnits="userSpaceOnUse" gradientTransform="translate(48 44) rotate(28) scale(310 284)">
      <stop stop-color="#052E16" stop-opacity="0"/>
      <stop offset="1" stop-color="#052E16"/>
    </radialGradient>
    <linearGradient id="paint1_linear" x1="48" y1="48" x2="96" y2="96" gradientUnits="userSpaceOnUse">
      <stop stop-color="#FDE68A"/>
      <stop offset="1" stop-color="#D97706"/>
    </linearGradient>
    <linearGradient id="paint2_linear" x1="156" y1="32" x2="196" y2="72" gradientUnits="userSpaceOnUse">
      <stop stop-color="#FDF4FF"/>
      <stop offset="1" stop-color="#F59E0B"/>
    </linearGradient>
    <linearGradient id="paint3_linear" x1="236" y1="100" x2="268" y2="132" gradientUnits="userSpaceOnUse">
      <stop stop-color="#FDE68A"/>
      <stop offset="1" stop-color="#B45309"/>
    </linearGradient>
    <linearGradient id="paint4_linear" x1="64" y1="188" x2="104" y2="228" gradientUnits="userSpaceOnUse">
      <stop stop-color="#FDE68A"/>
      <stop offset="1" stop-color="#B45309"/>
    </linearGradient>
    <linearGradient id="paint5_linear" x1="172" y1="204" x2="220" y2="252" gradientUnits="userSpaceOnUse">
      <stop stop-color="#FDE68A"/>
      <stop offset="1" stop-color="#B45309"/>
    </linearGradient>
    <linearGradient id="paint6_linear" x1="236" y1="184" x2="276" y2="224" gradientUnits="userSpaceOnUse">
      <stop stop-color="#FDE68A"/>
      <stop offset="1" stop-color="#C2410C"/>
    </linearGradient>
  </defs>
</svg>
